# xmcd
#
# Track frame offsets:
#	150
#	11327
#	47270
#	76088
#	97062
#	137715
#
# Disc length: 1950 seconds
#
# Revision: 1
# Processed by: cddbd v1.5.2PL0 Copyright (c) Steve Scherf et al.
# Submitted via: audiograbber 1.83.01
#
DISCID=3a079c06
DTITLE=Evangelium - Nightside of Eden
DYEAR=2010
DGENRE=Black Metal
TTITLE0=Abyssus Abyssum Invocat In Voce Cataractarum Tuarum
TTITLE1=The Void
TTITLE2=Corpus Dei
TTITLE3=The Black Devotion
TTITLE4=Divine Flames
TTITLE5=Nightside of Eden
EXTD=
EXTT0=
EXTT1=
EXTT2=
EXTT3=
EXTT4=
EXTT5=
PLAYORDER=
